<svg xmlns="http://www.w3.org/2000/svg" width="42.754" height="26.509" viewBox="0 0 42.754 26.509">
  <g id="american_express" data-name="american express" transform="translate(-0.017 -0.127)">
    <g id="card" transform="translate(0 0)">
      <rect id="card-2" data-name="card" width="42.754" height="26.509" rx="1.215" transform="translate(0.017 0.127)" fill="#2e77bc"/>
    </g>
    <g id="logo" transform="translate(9.869 8.879)">
      <path id="Fill_7" data-name="Fill 7" d="M5.381,3.6H4.307l-.184-.44V3.6H2.055l-.236-.573H1.288L1.051,3.6H0V1.71L.745,0h1.6l.207.425V0H4.437l.411.929L5.249,0H11.22a.993.993,0,0,1,.695.21V0H13.55V.21A2.127,2.127,0,0,1,14.576,0h2.368l.221.425V0h1.753l.239.425V0h1.709V3.6H19.139l-.327-.545V3.6H16.658l-.234-.573h-.53l-.239.573H14.536a2.085,2.085,0,0,1-.986-.219V3.6H10.892V2.781c0-.115-.022-.122-.09-.124h-.1l0,.941H5.566V3.153L5.381,3.6Zm10.13-1.084h1.278l.239.575h1.251V1.155l1.166,1.936h.871V.511h-.63v1.8L18.607.511H17.67v2.44L16.628.511h-.922L14.84,2.54h-.276a.6.6,0,0,1-.428-.133.89.89,0,0,1-.169-.606.859.859,0,0,1,.176-.584.586.586,0,0,1,.473-.153H15.2V.511h-.6a1.244,1.244,0,0,0-.934.3,1.356,1.356,0,0,0-.331,1.009,1.3,1.3,0,0,0,.328.985,1.328,1.328,0,0,0,.892.285h.72l.232-.574Zm-5.929-2V3.091H10.2V2.153h.661a.608.608,0,0,1,.448.11.679.679,0,0,1,.1.454v.049l0,.325h.621V2.584a.75.75,0,0,0-.1-.473.713.713,0,0,0-.3-.217.731.731,0,0,0,.433-.688.6.6,0,0,0-.311-.571A1.451,1.451,0,0,0,11,.511Zm-8.667,2H2.2l.236.575h1.25V1.069l.895,2.021h.54l.892-2.02,0,2.02h.63V.511H5.617l-.739,1.75L4.073.511h-1V2.954L2.022.511H1.109L.007,3.091H.675l.239-.574Zm11.495-2V3.091h.626V.511ZM7.1.511V3.091H9.154V2.557H7.715V2.042H9.121V1.514H7.715V1.048h1.44V.511Zm9.477,1.466h-.848L16.153.949l.423,1.026Zm-14.606,0H1.133L1.552.949,1.97,1.976Zm8.972-.355H10.2V1.048h.758a.626.626,0,0,1,.292.047.236.236,0,0,1,.129.228.267.267,0,0,1-.127.246A.56.56,0,0,1,10.943,1.622Z" transform="translate(0.18 0.081)" fill="#fff"/>
      <path id="Fill_6" data-name="Fill 6" d="M6.275,3.6h0l-2,0-.493-.56-.523.56H0V0H3.316l.476.551L4.3,0H6.519a1.385,1.385,0,0,1,.868.211V0H9.37A1.664,1.664,0,0,1,10.2.211V0h3.007V.211A1.172,1.172,0,0,1,13.941,0h1.684V.211A1.263,1.263,0,0,1,16.394,0h1.139V.513H16.307c-.65,0-.882.4-.882.769,0,.762.625.779,1.176.795h.122a.311.311,0,0,1,.217.058.213.213,0,0,1,.076.17.229.229,0,0,1-.073.168.343.343,0,0,1-.249.064H15.51v.554H16.7a.958.958,0,0,0,.835-.33v.671a2.16,2.16,0,0,1-.9.166H15.037V3.37a1.418,1.418,0,0,1-.838.23H9.175V2.767c0-.1-.011-.106-.112-.106h-.08V3.6H7.33V2.628a1.977,1.977,0,0,1-.779.128H6.275V3.6ZM13.1,2.54v.554h1.2c.641,0,.967-.274.967-.815a.72.72,0,0,0-.184-.546.983.983,0,0,0-.7-.208l-.331-.009a.746.746,0,0,1-.239-.029.2.2,0,0,1-.134-.193.2.2,0,0,1,.092-.185.44.44,0,0,1,.247-.046h1.129V.513H13.906c-.649,0-.88.4-.88.769,0,.762.624.779,1.175.795h.065l.056,0a.324.324,0,0,1,.22.058.224.224,0,0,1,.075.17.229.229,0,0,1-.073.168.352.352,0,0,1-.251.064ZM10.678.513h0v2.58h2.053V2.558l-1.441,0V2.042H12.7V1.516H11.29V1.047h1.441V.513H10.678Zm-2.2,1.638h.657a.6.6,0,0,1,.452.114.663.663,0,0,1,.1.455v.373H10.3V2.582a.759.759,0,0,0-.1-.472.682.682,0,0,0-.3-.216.719.719,0,0,0,.436-.687A.607.607,0,0,0,10.02.635,1.545,1.545,0,0,0,9.28.513H7.86v2.58h.618V2.152Zm-4.7.088h0l.757.853h1.2V2.227H6.5c.721,0,1.071-.283,1.071-.864,0-.564-.349-.85-1.037-.85H4.568l-.782.846L3.029.513H.555v2.58H2.992l.787-.853Zm1.34.619,0,0L4.175,1.807,5.119.79V2.858Zm-2.439-.3H1.168V2.042h1.35V1.516H1.168V1.047H2.711l.672.752-.7.757ZM17.533,1.8l0,0a.309.309,0,0,0-.056-.061.963.963,0,0,0-.7-.208l-.333-.009a.654.654,0,0,1-.238-.029.2.2,0,0,1-.134-.193.2.2,0,0,1,.09-.185.43.43,0,0,1,.248-.047h1.121V1.8ZM6.527,1.7H5.732V1.047h.8c.246,0,.376.11.376.317S6.77,1.7,6.527,1.7Zm2.7-.077H8.478v-.58h.757a.6.6,0,0,1,.293.047.245.245,0,0,1,.128.232.28.28,0,0,1-.128.247A.575.575,0,0,1,9.225,1.626Z" transform="translate(4.355 4.452)" fill="#fff"/>
    </g>
  </g>
</svg>
