<svg xmlns="http://www.w3.org/2000/svg" width="42.754" height="26.752" viewBox="0 0 42.754 26.752">
  <g id="diners_club" data-name="diners club" transform="translate(-0.017 -0.128)">
    <g id="card">
      <rect id="card-2" data-name="card" width="42.754" height="26.752" rx="1.215" transform="translate(0.017 0.128)" fill="#184977"/>
    </g>
    <g id="logo" transform="translate(9.684 9.768)">
      <path id="registered" d="M.175.363A.176.176,0,0,1,0,.182.176.176,0,0,1,.175,0,.174.174,0,0,1,.349.182.174.174,0,0,1,.175.363Zm0-.329A.143.143,0,0,0,.036.182.143.143,0,0,0,.175.329.143.143,0,0,0,.313.182.143.143,0,0,0,.175.034Z" transform="translate(21.666 4.017)" fill="#fff"/>
      <path id="l" d="M.365,1.055c0,.07.047.091.1.1a1.164,1.164,0,0,0,.222,0,.236.236,0,0,0,.161-.1A.421.421,0,0,0,.9.928H.949c-.019.1-.042.2-.062.3-.148,0-.3-.007-.443-.007s-.3.007-.443.007V1.174H.023c.061,0,.126-.008.126-.118v-.9c0-.092-.065-.1-.126-.1H0V0C.089,0,.176.007.265.007S.435,0,.521,0V.053H.478c-.064,0-.114,0-.114.095v.907" transform="translate(20.915 4.067)" fill="#fff"/>
      <path id="a" d="M.384,1.272h0C.3,1.266.239,1.264.181,1.264s-.118,0-.178.007l0-.053H.009A.154.154,0,0,0,.156,1.1L.425.3A1.513,1.513,0,0,0,.486.079.9.9,0,0,0,.639,0L.653,0A.011.011,0,0,1,.664.005c0,.007.006.016.008.024L.68.05.988.968.994.986c.018.056.037.114.056.162a.106.106,0,0,0,.111.07h.01V1.27c-.071,0-.15-.006-.231-.006s-.166,0-.249.007l0-.053H.707c.031,0,.1,0,.1-.05A.57.57,0,0,0,.777,1.04L.712.836H.33L.276,1.02c-.006.022-.012.041-.018.059a.284.284,0,0,0-.019.077c0,.041.042.062.126.062H.384v.053ZM.517.24h0l-.157.5H.677L.521.24Z" transform="translate(19.685 4.023)" fill="#fff"/>
      <path id="n" d="M1.09.881l0,0V.218C1.093.074,1,.053.947.053H.91V0c.078,0,.156.007.234.007S1.283,0,1.351,0V.053H1.326c-.071,0-.15.014-.15.223v.8a1.245,1.245,0,0,0,.01.177H1.123L.259.245V.969c0,.153.028.205.158.205H.445v.053C.373,1.227.3,1.22.229,1.22S.076,1.227,0,1.227V1.174H.024c.116,0,.151-.082.151-.223V.211A.153.153,0,0,0,.022.053H0V0C.064,0,.129.007.193.007S.292,0,.342,0L1.09.881" transform="translate(18.34 4.067)" fill="#fff"/>
      <path id="o" d="M.627,1.279A.6.6,0,0,1,0,.648.627.627,0,0,1,.619,0a.6.6,0,0,1,.643.607A.633.633,0,0,1,.627,1.279ZM.616.077C.262.077.235.467.235.587c0,.3.128.616.409.616.257,0,.383-.182.383-.557C1.027.37.883.077.616.077Z" transform="translate(17.037 4.041)" fill="#fff"/>
      <path id="i" d="M.023,1.174c.061,0,.124-.008.124-.1V.153c0-.092-.064-.1-.124-.1H0V0C.065,0,.166.007.248.007S.433,0,.512,0V.053H.489c-.061,0-.125.008-.125.1v.921c0,.092.064.1.125.1H.512v.053c-.081,0-.181-.007-.265-.007S.065,1.227,0,1.227V1.174Z" transform="translate(16.474 4.067)" fill="#fff"/>
      <path id="t" d="M.207.142C.081.142.076.174.051.3H0C.007.253.016.2.02.153A1.069,1.069,0,0,0,.03,0h.04c.013.053.056.051.1.051h.866c.045,0,.087,0,.091-.054l.04.007C1.162.054,1.155.1,1.15.15s0,.095,0,.142L1.1.311c0-.065-.012-.169-.124-.169H.7v.935c0,.136.059.151.139.151H.868v.053c-.065,0-.183-.007-.273-.007s-.219.007-.284.007V1.228H.342c.093,0,.14-.008.14-.147V.142H.207" transform="translate(15.244 4.013)" fill="#fff"/>
      <path id="a-2" data-name="a" d="M.384,1.272h0C.3,1.266.239,1.264.181,1.264s-.122,0-.181.007V1.218H.01A.154.154,0,0,0,.156,1.1L.425.3.43.28a1.374,1.374,0,0,0,.057-.2A.914.914,0,0,0,.639,0,.036.036,0,0,1,.653,0C.658,0,.661,0,.664.005S.67.021.673.029L.679.05.988.968l.017.051c.014.044.029.09.045.128a.106.106,0,0,0,.111.07h.01V1.27c-.074,0-.15-.006-.231-.006s-.16,0-.245.007H.688V1.218H.707c.031,0,.1,0,.1-.05A.57.57,0,0,0,.777,1.04L.712.836H.33L.277,1.02c-.006.02-.012.039-.018.056a.293.293,0,0,0-.02.08c0,.041.042.062.126.062H.384v.053ZM.517.24h0l-.156.5H.676L.522.24Z" transform="translate(14.206 4.023)" fill="#fff"/>
      <path id="n-2" data-name="n" d="M1.089.881l0,0V.218C1.092.074,1,.053.947.053H.909V0c.079,0,.156.007.235.007S1.282,0,1.351,0V.053H1.326c-.071,0-.15.014-.15.223v.8a1.226,1.226,0,0,0,.01.177H1.123L.258.245V.969c0,.153.029.205.158.205H.445v.053C.373,1.227.3,1.22.228,1.22S.075,1.227,0,1.227V1.174H.023c.116,0,.151-.082.151-.223V.211A.154.154,0,0,0,.022.053H0V0C.063,0,.129.007.193.007S.292,0,.342,0l.747.881" transform="translate(12.861 4.067)" fill="#fff"/>
      <path id="r" d="M.533,1.228h0l-.144,0c-.048,0-.1,0-.144,0s-.079,0-.119,0-.082,0-.125,0V1.174H.031c.055,0,.119-.025.119-.095V.186C.149.063.091.053.031.053H0V0L.085,0H.091C.14,0,.2.007.26.007s.1,0,.144,0S.488,0,.531,0C.8,0,.93.1.93.31A.325.325,0,0,1,.7.619l.287.449a.184.184,0,0,0,.163.105v.052H1.129l-.065,0c-.028,0-.055,0-.082,0s-.052,0-.078,0-.053,0-.079,0A4.915,4.915,0,0,1,.475.657H.364v.376c0,.14.067.14.138.14H.533v.053ZM.46.064a.579.579,0,0,0-.07,0L.364.07V.594H.446C.627.594.7.512.7.32A.235.235,0,0,0,.46.064Z" transform="translate(11.664 4.067)" fill="#fff"/>
      <path id="e" d="M0,1.174H.023c.06,0,.124-.008.124-.1V.153c0-.092-.064-.1-.124-.1H0V0C.1,0,.277.007.418.007S.733,0,.847,0c0,.076,0,.192,0,.269L.8.283C.792.169.772.078.6.078H.363v.46h.2c.1,0,.123-.059.133-.154h.05c0,.069,0,.137,0,.205s0,.134,0,.2L.695.8C.685.694.68.626.564.626h-.2v.409c0,.115.1.115.2.115.2,0,.29-.014.341-.215L.955.948c-.022.094-.042.186-.057.279-.107,0-.3-.007-.452-.007S.1,1.227,0,1.227V1.174" transform="translate(10.633 4.067)" fill="#fff"/>
      <path id="t-2" data-name="t" d="M.206.142C.08.142.076.174.05.3H0C.007.253.015.2.02.153A1.116,1.116,0,0,0,.03,0h.04c.013.053.055.051.1.051h.866c.045,0,.087,0,.091-.054l.04.007C1.162.054,1.155.1,1.15.15s0,.095,0,.142L1.1.311c0-.065-.012-.169-.124-.169H.7v.935c0,.136.059.151.139.151H.868v.053c-.065,0-.183-.007-.274-.007s-.218.007-.284.007V1.228H.342c.093,0,.139-.008.139-.147V.142H.206" transform="translate(9.411 4.013)" fill="#fff"/>
      <path id="n-3" data-name="n" d="M1.089.881l0,0V.218C1.093.074,1,.053.947.053H.91V0c.079,0,.156.007.235.007S1.283,0,1.351,0V.053H1.326c-.071,0-.15.014-.15.223v.8a1.245,1.245,0,0,0,.01.177H1.123L.258.245V.969c0,.153.028.205.158.205H.445v.053C.373,1.227.3,1.22.228,1.22S.075,1.227,0,1.227V1.174H.023c.116,0,.151-.082.151-.223V.211A.154.154,0,0,0,.022.053H0V0C.064,0,.129.007.193.007S.292,0,.342,0l.747.881" transform="translate(8.014 4.067)" fill="#fff"/>
      <path id="i-2" data-name="i" d="M0,1.174H.024c.06,0,.124-.008.124-.1V.153c0-.092-.064-.1-.124-.1H0V0C.066,0,.166.007.249.007S.433,0,.512,0V.053H.488c-.06,0-.124.008-.124.1v.921c0,.092.064.1.124.1H.512v.053c-.081,0-.181-.007-.265-.007S.066,1.227,0,1.227V1.174" transform="translate(7.439 4.067)" fill="#fff"/>
      <path id="b" d="M.706,2.516a.821.821,0,0,1-.388-.094L.277,2.4l-.092.074L.121,2.442a4.041,4.041,0,0,0,.042-.574V.479C.163.276.119.262.012.23L0,.226V.175A1.926,1.926,0,0,0,.318.036L.332.027A.19.19,0,0,1,.386,0C.4,0,.41.016.41.046V1.224A.74.74,0,0,1,.87.992a.622.622,0,0,1,.573.678A.8.8,0,0,1,.706,2.516Zm0-1.35a.466.466,0,0,0-.293.152V2.1a.34.34,0,0,0,.318.329c.322,0,.469-.325.469-.626A.61.61,0,0,0,.7,1.166Z" transform="translate(20.337 0.895)" fill="#fff"/>
      <path id="u" d="M1.32,1.25c0,.058.034.061.086.061l.124,0v.068a3.044,3.044,0,0,0-.445.1l-.015-.01V1.2a.818.818,0,0,1-.546.271.341.341,0,0,1-.339-.384V.265C.185.181.172.1,0,.084V.023C.111.019.357,0,.4,0S.432.023.432.093V.927c0,.1,0,.375.268.375a.679.679,0,0,0,.373-.2V.235C1.073.171.925.136.814.1V.045C1.092.025,1.265,0,1.3,0s.025.023.025.058V1.25" transform="translate(18.813 1.936)" fill="#fff"/>
      <path id="l-2" data-name="l" d="M0,2.384H.059c.086,0,.148,0,.148-.107V.479C.207.268.161.262.043.226V.175A1.908,1.908,0,0,0,.361.036.322.322,0,0,1,.429,0C.448,0,.454.019.454.046V2.277c0,.107.068.107.155.107H.66v.084c-.1,0-.213-.006-.324-.006s-.222,0-.336.006V2.384" transform="translate(18.152 0.895)" fill="#fff"/>
      <path id="c" d="M1.927.633H1.85A.592.592,0,0,0,1.191.1.9.9,0,0,0,.32,1.127a1.037,1.037,0,0,0,.92,1.121.637.637,0,0,0,.62-.559l.071.019L1.86,2.18a1.668,1.668,0,0,1-.682.171A1.124,1.124,0,0,1,0,1.137,1.157,1.157,0,0,1,1.169,0,2.143,2.143,0,0,1,1.9.171l.031.462" transform="translate(16.114 1.06)" fill="#fff"/>
      <path id="s" d="M.055,1.027c.04.213.164.394.389.394a.222.222,0,0,0,.249-.229C.694.811.022.933.022.413A.431.431,0,0,1,.5,0,.783.783,0,0,1,.851.093L.873.423H.8A.323.323,0,0,0,.466.1a.22.22,0,0,0-.24.213c0,.378.715.262.715.769,0,.213-.163.439-.53.439a.786.786,0,0,1-.377-.109L0,1.043l.055-.016" transform="translate(14.315 1.887)" fill="#fff"/>
      <path id="r-2" data-name="r" d="M0,1.392H.084c.086,0,.147,0,.147-.107V.378c0-.1-.114-.12-.16-.146V.184C.3.084.42,0,.448,0S.475.009.475.042V.332H.482C.559.207.688,0,.876,0a.171.171,0,0,1,.176.171A.154.154,0,0,1,.907.336c-.1,0-.1-.078-.2-.078A.267.267,0,0,0,.478.526v.758c0,.107.062.107.148.107H.8v.084c-.17,0-.3-.006-.432-.006s-.256,0-.367.006V1.392" transform="translate(13.183 1.887)" fill="#fff"/>
      <path id="e-2" data-name="e" d="M.59,1.525c-.466,0-.59-.461-.59-.7C0,.147.45,0,.623,0a.5.5,0,0,1,.521.507.424.424,0,0,1,0,.058L1.113.584H.247a.834.834,0,0,0,0,.188C.265,1.09.46,1.33.7,1.33a.593.593,0,0,0,.417-.216l.043.045A.726.726,0,0,1,.59,1.525ZM.61.1C.426.1.293.244.256.481H.793C.868.481.878.44.878.4A.269.269,0,0,0,.61.1Z" transform="translate(11.968 1.887)" fill="#fff"/>
      <path id="n-4" data-name="n" d="M.2.429C.2.31.17.278.025.217V.155A4.15,4.15,0,0,0,.432,0C.441,0,.45.006.45.032V.242A.884.884,0,0,1,.984,0c.262,0,.355.2.355.452v.833c0,.107.068.107.154.107h.056v.084c-.108,0-.216-.006-.327-.006s-.222,0-.333.006V1.392H.944c.086,0,.148,0,.148-.107V.449A.252.252,0,0,0,.808.174.8.8,0,0,0,.45.329v.955c0,.107.068.107.155.107H.66v.084c-.108,0-.216-.006-.328-.006s-.222,0-.333.006V1.392H.056c.086,0,.148,0,.148-.107V.429" transform="translate(10.431 1.887)" fill="#fff"/>
      <path id="i-3" data-name="i" d="M.66,2.291h0l-.156,0c-.055,0-.111,0-.167,0-.12,0-.237,0-.336.006V2.206H.059c.086,0,.148,0,.148-.106V1.224c0-.136-.043-.16-.145-.217L.046,1V.947A3.334,3.334,0,0,0,.376.83.1.1,0,0,1,.432.815C.451.815.454.843.454.86V2.1c0,.106.068.106.154.106H.66V2.29ZM.33.317A.163.163,0,0,1,.179.156.162.162,0,0,1,.33,0,.154.154,0,0,1,.481.156.158.158,0,0,1,.33.317Z" transform="translate(9.682 1.073)" fill="#fff"/>
      <path id="d" d="M.86,2.254c-.079,0-.156,0-.231,0s-.145,0-.216,0c-.11,0-.22,0-.327,0L0,2.254V2.17H.007c.178-.018.267-.027.276-.244V.358C.284.088.16.086.029.084H0V0C.12.006.244.006.364.006L.557,0c.1,0,.211,0,.34,0A1.145,1.145,0,0,1,2.131,1.13,1.127,1.127,0,0,1,.86,2.254ZM.826.1c-.094,0-.15,0-.2.009l-.045,0V1.873c0,.245.162.278.32.278a.9.9,0,0,0,.886-1.008A.951.951,0,0,0,.826.1Z" transform="translate(7.442 1.109)" fill="#fff"/>
      <g id="icon">
        <path id="icon-2" data-name="icon" d="M2.944,6.142a2.874,2.874,0,0,1-2.078-.9A3.074,3.074,0,0,1,0,3.1,2.964,2.964,0,0,1,2.958,0h.76A3.105,3.105,0,0,1,5.853.862,3.07,3.07,0,0,1,6.786,3.1a2.991,2.991,0,0,1-.933,2.15,3.1,3.1,0,0,1-2.135.894H2.944ZM2.965.254A2.756,2.756,0,0,0,.28,3.065,2.754,2.754,0,0,0,2.965,5.876,2.753,2.753,0,0,0,5.649,3.065,2.755,2.755,0,0,0,2.965.254Zm.609,4.473h0V1.4A1.8,1.8,0,0,1,4.667,3.065,1.771,1.771,0,0,1,3.575,4.726Zm-1.22,0h0A1.8,1.8,0,0,1,1.263,3.065,1.776,1.776,0,0,1,2.355,1.4l0,3.323Z" transform="translate(0 0.146)" fill="#fff"/>
      </g>
    </g>
  </g>
</svg>
