<svg xmlns="http://www.w3.org/2000/svg" width="42.758" height="26.752" viewBox="0 0 42.758 26.752">
  <g id="discover" transform="translate(-0.017 -0.128)">
    <g id="card">
      <rect id="card-2" data-name="card" width="42.754" height="26.752" rx="1.215" transform="translate(0.017 0.128)" fill="#f9f9f9"/>
    </g>
    <path id="shape" d="M31.206,0V10.179a1.215,1.215,0,0,1-1.215,1.215H0C13.269,8.67,22.851,4.954,31.206,0Z" transform="translate(11.57 15.472)" fill="#f58220"/>
    <g id="logo" transform="translate(10.365 10.766)">
      <g id="registered" transform="translate(21.309 0.166)">
        <path id="r" d="M.071.312H0V0H.1C.169,0,.209.034.209.1A.085.085,0,0,1,.143.183l.1.127-.088,0L.071.19V.311Z" transform="translate(0.258 0.172)" fill="#231f20"/>
        <path id="Fill_12" data-name="Fill 12" d="M.263.553A.27.27,0,0,1,0,.277.271.271,0,0,1,.263,0,.27.27,0,0,1,.524.277.269.269,0,0,1,.263.553Zm0-.5A.217.217,0,0,0,.051.277.22.22,0,0,0,.263.5.218.218,0,0,0,.471.277.218.218,0,0,0,.263.05Z" transform="translate(0.106 0.053)" fill="#231f20"/>
      </g>
      <path id="r-2" data-name="r" d="M.669,3.6H0V0H.992C1.762,0,2.2.387,2.2,1.061a.948.948,0,0,1-.781,1.02L2.5,3.594l-.821,0L.756,2.151H.669V3.6Zm0-3.031v1.09H.863c.428,0,.654-.192.654-.556S1.295.565.874.565Z" transform="translate(19.102 0.168)" fill="#231f20"/>
      <path id="e" d="M0,3.6H1.9V2.987H.668V2.016H1.849V1.407H.668v-.8H1.9V0H0V3.6" transform="translate(16.765 0.168)" fill="#231f20"/>
      <path id="v" d="M1.644,2.415.729,0H0L1.455,3.688h.359L3.294,0H2.57L1.644,2.415" transform="translate(13.168 0.168)" fill="#231f20"/>
      <path id="Fill_1" data-name="Fill 1" d="M0,1.848a1.826,1.826,0,1,0,3.649.021A1.825,1.825,0,1,0,0,1.848Z" transform="translate(9.651 0.1)" fill="#f48027"/>
      <path id="c" d="M0,1.881A1.819,1.819,0,0,0,1.809,3.758a1.767,1.767,0,0,0,.838-.21V2.722a1.049,1.049,0,0,1-.807.393A1.15,1.15,0,0,1,.688,1.875,1.171,1.171,0,0,1,1.809.641a1.1,1.1,0,0,1,.838.4V.22A1.641,1.641,0,0,0,1.824,0,1.846,1.846,0,0,0,0,1.881" transform="translate(6.751 0.087)" fill="#231f20"/>
      <path id="s" d="M1.382,1.439C.98,1.283.863,1.18.863.986a.445.445,0,0,1,.5-.4.685.685,0,0,1,.54.29L2.25.4A1.456,1.456,0,0,0,1.243,0,1.028,1.028,0,0,0,.174,1.03c0,.5.216.75.842.987a2.564,2.564,0,0,1,.462.2.436.436,0,0,1,.2.372.5.5,0,0,1-.52.507A.787.787,0,0,1,.431,2.62L0,3.058a1.318,1.318,0,0,0,1.187.684A1.131,1.131,0,0,0,2.368,2.561c0-.571-.225-.83-.986-1.122" transform="translate(4.173 0.108)" fill="#231f20"/>
      <path id="i" d="M0,0H.668V3.6H0Z" transform="translate(3.253 0.168)" fill="#231f20"/>
      <path id="d" d="M.977,3.6H0V0H.982A1.741,1.741,0,0,1,2.821,1.8,1.858,1.858,0,0,1,2.2,3.181,1.739,1.739,0,0,1,.977,3.6ZM.669.609V2.987h.18A1.229,1.229,0,0,0,1.763,2.7a1.266,1.266,0,0,0,.369-.906A1.237,1.237,0,0,0,1.763.9,1.2,1.2,0,0,0,.849.609Z" transform="translate(0.123 0.168)" fill="#231f20"/>
    </g>
  </g>
</svg>
