<svg xmlns="http://www.w3.org/2000/svg" width="42.754" height="26.752" viewBox="0 0 42.754 26.752">
  <g id="mastercard" transform="translate(-0.017 -0.128)">
    <g id="card">
      <rect id="card-2" data-name="card" width="42.754" height="26.752" rx="1.215" transform="translate(0.017 0.128)" fill="#14457c"/>
    </g>
    <g id="logo" transform="translate(10.453 6.821)">
      <path id="Fill_2" data-name="Fill 2" d="M13.14,6.665a6.617,6.617,0,0,1-6.57,6.665A6.618,6.618,0,0,1,0,6.665,6.618,6.618,0,0,1,6.57,0a6.618,6.618,0,0,1,6.57,6.665" transform="translate(0.023)" fill="#d82332"/>
      <path id="Fill_3" data-name="Fill 3" d="M6.422,0A6.5,6.5,0,0,0,2.012,1.725a6.74,6.74,0,0,0-.663.706H2.676a6.821,6.821,0,0,1,.5.706H.848a6.726,6.726,0,0,0-.378.706H3.555a6.694,6.694,0,0,1,.278.706H.191A6.718,6.718,0,0,0,0,5.253H4.024a6.814,6.814,0,0,1,.148,1.411,6.75,6.75,0,0,1-.338,2.117H.191a6.759,6.759,0,0,0,.278.706H3.555a6.726,6.726,0,0,1-.379.706H.848a6.735,6.735,0,0,0,.5.705H2.676a6.609,6.609,0,0,1-.664.706,6.494,6.494,0,0,0,4.41,1.725,6.618,6.618,0,0,0,6.57-6.665A6.618,6.618,0,0,0,6.422,0" transform="translate(9.055)" fill="#f1ab3e"/>
      <path id="registered" d="M.212.427A.213.213,0,1,1,.424.213.213.213,0,0,1,.212.427Zm0-.375a.162.162,0,1,0,.16.162A.162.162,0,0,0,.212.051Z" transform="translate(21.099 10.111)" fill="#f1ab3e"/>
      <path id="registered-2" data-name="registered" d="M.212.427A.213.213,0,0,1,.212,0a.213.213,0,0,1,0,.427Zm0-.375A.162.162,0,1,0,.373.213.162.162,0,0,0,.212.051Z" transform="translate(21.099 8.005)" fill="#fffffe"/>
      <path id="Fill_12" data-name="Fill 12" d="M2.238,3.428c-.515,0-.861-.458-.861-1.14a2.4,2.4,0,0,1,.173-.893H1.528c-.179,0-.29.111-.444.265C1.038,1.7.991,1.752.938,1.8.878,2.266.8,2.8.714,3.38H0L.032,3.2c.04-.276.085-.559.128-.832C.251,1.794.345,1.206.4.631h.655a4.053,4.053,0,0,1-.03.411,5.719,5.719,0,0,0,.607.17,1.107,1.107,0,0,1,.9-.684.91.91,0,0,1,.68.448L3.377,0h.7L3.537,3.38H2.862L2.9,3.125A.833.833,0,0,1,2.238,3.428ZM2.673,1.28c-.326,0-.553.38-.553.923,0,.36.123.543.365.543.333,0,.565-.382.565-.928C3.05,1.471,2.916,1.28,2.673,1.28Z" transform="translate(17.05 5.161)" fill="#0c2d5a"/>
      <path id="a" d="M.652,2.858A.676.676,0,0,1,0,2.107c0-.673.456-1.059,1.252-1.059a2.253,2.253,0,0,1,.291.022A.71.71,0,0,0,1.57.89c0-.182-.124-.249-.457-.249H1.087A2.308,2.308,0,0,0,.358.764l.1-.618A2.778,2.778,0,0,1,1.31,0a1,1,0,0,1,.733.238.77.77,0,0,1,.2.568,3.422,3.422,0,0,1-.058.544l-.019.124c-.066.43-.177,1.148-.193,1.336H1.385L1.4,2.526A.884.884,0,0,1,.652,2.858ZM1.3,1.575c-.4,0-.609.14-.609.418a.252.252,0,0,0,.256.281c.29,0,.5-.283.512-.688A1.122,1.122,0,0,0,1.3,1.575Z" transform="translate(14.869 5.793)" fill="#0c2d5a"/>
      <path id="Fill_11" data-name="Fill 11" d="M3.21.837a1.343,1.343,0,0,1,.637.182L3.964.286A2.077,2.077,0,0,0,3.18,0,1.415,1.415,0,0,0,2.015.637C1.6.5,1.431.779,1.222,1.059L1.037,1.1A1.425,1.425,0,0,0,1.06.826H.4C.315,1.677.157,2.539.032,3.39L0,3.575H.714C.833,2.79.9,2.288.937,1.947L1.206,1.8c.04-.152.166-.2.418-.2a3.133,3.133,0,0,0-.051.563c0,.9.479,1.46,1.246,1.46a2.2,2.2,0,0,0,.631-.1l.125-.77a1.372,1.372,0,0,1-.606.173c-.415,0-.666-.311-.666-.824,0-.745.373-1.266.906-1.266" transform="translate(11.236 5.056)" fill="#0c2d5a"/>
      <path id="e" d="M1.208,2.858A1.089,1.089,0,0,1,0,1.632C0,.686.522,0,1.24,0A.916.916,0,0,1,2.2,1a3.027,3.027,0,0,1-.087.676H.7a.483.483,0,0,0,.1.393.672.672,0,0,0,.521.172,1.648,1.648,0,0,0,.737-.174l-.118.684A2.42,2.42,0,0,1,1.208,2.858Zm0-2.232C.98.626.819.8.753,1.117h.783s0-.009,0-.016a.512.512,0,0,0-.081-.38A.322.322,0,0,0,1.206.626Z" transform="translate(9.055 5.793)" fill="#0c2d5a"/>
      <path id="t" d="M1.076,3.123a1.608,1.608,0,0,1-.512.089A.526.526,0,0,1,0,2.609a6.471,6.471,0,0,1,.1-.733C.139,1.619.407,0,.407,0h.709L1.034.416H1.4l-.1.661H.935c-.082.523-.2,1.174-.2,1.261,0,.142.075.2.244.2a.565.565,0,0,0,.192-.026l-.095.608" transform="translate(7.706 5.477)" fill="#0c2d5a"/>
      <path id="s" d="M.27.931A.8.8,0,0,0,.813,1.7c.289.138.333.179.333.3,0,.171-.127.249-.41.249A1.983,1.983,0,0,1,.1,2.142L0,2.777a3.259,3.259,0,0,0,.742.082c.753,0,1.1-.291,1.1-.919a.752.752,0,0,0-.5-.766c-.3-.14-.333-.17-.333-.3,0-.149.118-.225.349-.225a3.911,3.911,0,0,1,.512.042l.1-.638A4.788,4.788,0,0,0,1.341,0C.544,0,.268.423.27.931" transform="translate(5.733 5.793)" fill="#0c2d5a"/>
      <path id="a-2" data-name="a" d="M.652,2.858A.676.676,0,0,1,0,2.107c0-.673.456-1.059,1.252-1.059a2.253,2.253,0,0,1,.291.022A.676.676,0,0,0,1.571.89c0-.182-.124-.249-.457-.249H1.087A2.308,2.308,0,0,0,.358.764l.1-.618A2.78,2.78,0,0,1,1.311,0c.612,0,.936.279.936.806a3.672,3.672,0,0,1-.058.544c-.058.375-.2,1.25-.213,1.46H1.385L1.4,2.526A.884.884,0,0,1,.652,2.858ZM1.3,1.575c-.4,0-.609.14-.609.418a.252.252,0,0,0,.256.281c.289,0,.5-.283.513-.688A1.137,1.137,0,0,0,1.3,1.575Z" transform="translate(3.657 5.793)" fill="#0c2d5a"/>
      <path id="m" d="M2.86,3.38H2.147l.409-2.6-.912,2.6H1.157L1.1.8.668,3.38H0L.558,0H1.583l.029,2.093L2.3,0H3.412L2.86,3.38" transform="translate(0.438 5.266)" fill="#0c2d5a"/>
      <path id="d_2" data-name="d 2" d="M.861,3.428C.346,3.428,0,2.969,0,2.287,0,1.374.531.6,1.16.6a.8.8,0,0,1,.681.374L2,0h.7L2.16,3.38H1.485l.034-.256A.843.843,0,0,1,.861,3.428ZM1.3,1.28c-.325,0-.553.38-.553.923,0,.36.123.542.365.542.333,0,.565-.381.565-.926C1.673,1.471,1.539,1.28,1.3,1.28Z" transform="translate(18.711 5.056)" fill="#fffffe"/>
      <path id="r_2" data-name="r 2" d="M.4.03C.315.88.157,1.742.032,2.594L0,2.779H.713C.968,1.1,1.03.769,1.43.81A2.721,2.721,0,0,1,1.7.013c-.3-.063-.466.108-.684.434A2.539,2.539,0,0,0,1.06.03H.4" transform="translate(17.257 5.582)" fill="#fffffe"/>
      <path id="a_2" data-name="a 2" d="M.652,2.858A.676.676,0,0,1,0,2.107c0-.673.456-1.059,1.252-1.059a2.253,2.253,0,0,1,.291.022A.71.71,0,0,0,1.57.89c0-.182-.124-.249-.457-.249H1.087A2.308,2.308,0,0,0,.358.764l.1-.618A2.778,2.778,0,0,1,1.31,0a1,1,0,0,1,.733.238.77.77,0,0,1,.2.568,3.422,3.422,0,0,1-.058.544l-.019.124c-.066.43-.177,1.148-.193,1.336H1.385L1.4,2.526A.884.884,0,0,1,.652,2.858ZM1.3,1.575c-.4,0-.609.14-.609.418a.252.252,0,0,0,.256.281c.29,0,.5-.283.512-.688A1.122,1.122,0,0,0,1.3,1.575Z" transform="translate(15.077 5.582)" fill="#fffffe"/>
      <path id="c_2" data-name="c 2" d="M2.39.176,2.274.909A1.347,1.347,0,0,0,1.636.727C1.1.727.73,1.249.73,1.993c0,.513.251.823.666.823A1.366,1.366,0,0,0,2,2.643l-.125.77a2.193,2.193,0,0,1-.63.1C.478,3.513,0,2.952,0,2.053,0,.845.661,0,1.606,0A2.441,2.441,0,0,1,2.39.176" transform="translate(13.001 4.95)" fill="#fffffe"/>
      <path id="r_3" data-name="r 3" d="M.4.03C.315.88.156,1.742.032,2.594L0,2.779H.714C.969,1.1,1.03.769,1.43.81A2.741,2.741,0,0,1,1.7.013c-.3-.063-.466.108-.684.434A2.516,2.516,0,0,0,1.06.03H.4" transform="translate(11.443 5.582)" fill="#fffffe"/>
      <path id="e_2" data-name="e 2" d="M1.208,2.858A1.089,1.089,0,0,1,0,1.632C0,.686.522,0,1.24,0A.916.916,0,0,1,2.2,1a3.027,3.027,0,0,1-.087.676H.7a.483.483,0,0,0,.1.393.672.672,0,0,0,.521.172,1.648,1.648,0,0,0,.737-.174l-.118.684A2.42,2.42,0,0,1,1.208,2.858Zm0-2.232C.98.626.819.8.753,1.117h.783s0-.009,0-.016a.512.512,0,0,0-.081-.38A.322.322,0,0,0,1.206.626Z" transform="translate(9.263 5.582)" fill="#fffffe"/>
      <path id="t_2" data-name="t 2" d="M1.076,3.123a1.608,1.608,0,0,1-.512.089A.526.526,0,0,1,0,2.609a6.471,6.471,0,0,1,.1-.733C.139,1.619.407,0,.407,0h.709L1.034.416H1.4l-.1.661H.935c-.082.523-.2,1.174-.2,1.261,0,.142.075.2.244.2a.565.565,0,0,0,.192-.026l-.095.608" transform="translate(7.913 5.266)" fill="#fffffe"/>
      <path id="s_2" data-name="s 2" d="M.27.931A.8.8,0,0,0,.813,1.7c.289.138.333.179.333.3,0,.171-.127.249-.41.249A1.983,1.983,0,0,1,.1,2.142L0,2.777a3.259,3.259,0,0,0,.742.082c.753,0,1.1-.291,1.1-.919a.752.752,0,0,0-.5-.766c-.3-.14-.333-.17-.333-.3,0-.149.118-.225.349-.225a3.911,3.911,0,0,1,.512.042l.1-.638A4.788,4.788,0,0,0,1.341,0C.544,0,.268.423.27.931" transform="translate(5.941 5.582)" fill="#fffffe"/>
      <path id="a_3" data-name="a 3" d="M.652,2.858A.676.676,0,0,1,0,2.107c0-.673.456-1.059,1.252-1.059a2.253,2.253,0,0,1,.291.022A.676.676,0,0,0,1.571.89c0-.182-.124-.249-.457-.249H1.087A2.308,2.308,0,0,0,.358.764l.1-.618A2.78,2.78,0,0,1,1.311,0c.612,0,.936.279.936.806a3.672,3.672,0,0,1-.058.544c-.058.375-.2,1.25-.213,1.46H1.385L1.4,2.526A.884.884,0,0,1,.652,2.858ZM1.3,1.575c-.4,0-.609.14-.609.418a.252.252,0,0,0,.256.281c.289,0,.5-.283.513-.688A1.137,1.137,0,0,0,1.3,1.575Z" transform="translate(3.864 5.582)" fill="#fffffe"/>
      <path id="m_2" data-name="m 2" d="M2.86,3.38H2.147l.409-2.6-.912,2.6H1.157L1.1.8.668,3.38H0L.558,0H1.583l.029,2.093L2.3,0H3.412L2.86,3.38" transform="translate(0.646 5.056)" fill="#fffffe"/>
    </g>
  </g>
</svg>
