<svg xmlns="http://www.w3.org/2000/svg" width="42.511" height="26.752" viewBox="0 0 42.511 26.752">
  <g id="paypal" transform="translate(-0.094 -0.128)">
    <g id="card" transform="translate(0.077)">
      <rect id="card-2" data-name="card" width="42.511" height="26.752" rx="1.215" transform="translate(0.017 0.128)" fill="#2890c3"/>
    </g>
    <g id="logo" transform="translate(14.167 6.085)">
      <g id="text" transform="translate(0 10.439)">
        <path id="l" d="M.456.079,0,3.018a.093.093,0,0,0,.091.108H.55A.155.155,0,0,0,.7,2.994L1.151.108A.093.093,0,0,0,1.06,0H.548A.093.093,0,0,0,.456.079" transform="translate(13.195 0.073)" fill="#fff"/>
        <path id="a" d="M.883,2.186a.827.827,0,0,1-.67-.275,1.027,1.027,0,0,1-.2-.828A1.228,1.228,0,0,1,1.2,0a.738.738,0,0,1,.627.226l.037.055L1.889.13A.094.094,0,0,1,1.981.05h.531a.091.091,0,0,1,.069.032A.1.1,0,0,1,2.6.159L2.316,2a.156.156,0,0,1-.152.131H1.686a.093.093,0,0,1-.092-.108l.024-.147,0,0A1.043,1.043,0,0,1,.883,2.186ZM1.328.572a.6.6,0,0,0-.595.519.462.462,0,0,0,.083.378.444.444,0,0,0,.356.146.6.6,0,0,0,.6-.515.466.466,0,0,0-.09-.381A.441.441,0,0,0,1.328.572Z" transform="translate(10.514 1.063)" fill="#fff"/>
        <path id="P" d="M.662,3.126H.093A.093.093,0,0,1,0,3.018L.45.132A.154.154,0,0,1,.6,0H1.711a1.019,1.019,0,0,1,.808.288.874.874,0,0,1,.142.725A1.147,1.147,0,0,1,1.4,2.083H1.048A.154.154,0,0,0,.9,2.216l-.128.818A.107.107,0,0,1,.662,3.126Zm.56-2.5A.092.092,0,0,0,1.13.7l-.118.754H1.18c.294,0,.6,0,.659-.4A.374.374,0,0,0,1.785.741C1.688.625,1.5.625,1.3.625Z" transform="translate(7.999 0.073)" fill="#fff"/>
        <path id="y" d="M2.475,0H1.941a.153.153,0,0,0-.127.069l-.736,1.1L.765.112A.155.155,0,0,0,.617,0H.093A.094.094,0,0,0,.005.124L.593,1.875.04,2.666a.094.094,0,0,0,.076.148H.649a.154.154,0,0,0,.127-.067L2.551.147A.094.094,0,0,0,2.475,0" transform="translate(5.469 1.114)" fill="#fff"/>
        <path id="a-2" data-name="a" d="M.883,2.186a.827.827,0,0,1-.67-.275,1.027,1.027,0,0,1-.2-.828A1.228,1.228,0,0,1,1.2,0a.738.738,0,0,1,.627.226l.037.055L1.889.13A.094.094,0,0,1,1.981.05h.531a.091.091,0,0,1,.069.032A.1.1,0,0,1,2.6.159L2.316,2a.156.156,0,0,1-.152.131H1.686a.093.093,0,0,1-.092-.108l.024-.147,0,0A1.043,1.043,0,0,1,.883,2.186ZM1.328.572a.6.6,0,0,0-.595.519.462.462,0,0,0,.083.378.444.444,0,0,0,.356.146.6.6,0,0,0,.6-.515.466.466,0,0,0-.09-.381A.441.441,0,0,0,1.328.572Z" transform="translate(2.603 1.063)" fill="#fff"/>
        <path id="P-2" data-name="P" d="M.622,3.126H.093A.093.093,0,0,1,0,3.018L.45.132A.154.154,0,0,1,.6,0H1.711a1.019,1.019,0,0,1,.808.288.874.874,0,0,1,.142.725A1.147,1.147,0,0,1,1.4,2.083H1.048A.154.154,0,0,0,.9,2.216l-.122.778A.156.156,0,0,1,.622,3.126Zm.6-2.5A.092.092,0,0,0,1.13.7l-.118.754H1.18c.294,0,.6,0,.659-.4A.374.374,0,0,0,1.785.741C1.688.625,1.5.625,1.3.625Z" transform="translate(0.088 0.073)" fill="#fff"/>
      </g>
      <g id="icon" transform="translate(3.724)">
        <path id="P-3" data-name="P" d="M6.475.689A2.74,2.74,0,0,0,4.347,0H1.559a.4.4,0,0,0-.394.343L0,7.84a.242.242,0,0,0,.237.282H1.961L2.394,5.33l-.013.087a.4.4,0,0,1,.393-.343h.818A2.935,2.935,0,0,0,6.825,2.487q.016-.085.029-.166h0A1.839,1.839,0,0,0,6.475.689" transform="translate(0.022)" fill="#fff"/>
        <path id="shadow" d="M5.006,0h0C5,.054,4.989.109,4.978.166A2.93,2.93,0,0,1,1.749,2.742H.932a.4.4,0,0,0-.392.341L0,6.541a.211.211,0,0,0,.206.246H1.658A.35.35,0,0,0,2,6.488l.014-.075L2.29,4.655l.018-.1a.35.35,0,0,1,.344-.3h.217A2.563,2.563,0,0,0,5.693,2.005,1.943,1.943,0,0,0,5.4.311,1.387,1.387,0,0,0,5.006,0" transform="translate(2.106 2.545)" fill="#fff"/>
        <path id="fill" d="M4.082.134Q4,.109,3.909.089C3.849.075,3.788.064,3.725.053A4.465,4.465,0,0,0,3,0H.822a.34.34,0,0,0-.15.035A.353.353,0,0,0,.477.3L.013,3.286,0,3.373a.4.4,0,0,1,.392-.341h.817A2.929,2.929,0,0,0,4.438.455c.011-.057.02-.111.029-.166a1.966,1.966,0,0,0-.3-.129L4.082.134" transform="translate(2.402 2.008)" fill="#fff"/>
      </g>
    </g>
  </g>
</svg>
