<svg xmlns="http://www.w3.org/2000/svg" width="42.511" height="26.509" viewBox="0 0 42.511 26.509">
  <g id="visa" transform="translate(-0.033 -0.253)">
    <g id="card" transform="translate(0.017 0.127)">
      <rect id="card-2" data-name="card" width="42.511" height="26.509" rx="1.215" transform="translate(0.017 0.127)" fill="#0066b2"/>
    </g>
    <g id="logo" transform="translate(10.671 9.74)">
      <g id="registered" transform="translate(20.513 5.744)">
        <path id="registered-2" data-name="registered" d="M.342.688A.344.344,0,1,1,.684.344.343.343,0,0,1,.342.688Zm0-.6A.261.261,0,1,0,.6.344.26.26,0,0,0,.342.083ZM.3.5H.226v-.3H.353A.132.132,0,0,1,.429.208.092.092,0,0,1,.468.284.081.081,0,0,1,.416.361L.47.492l-.077,0L.347.374H.3v.12Z" transform="translate(0.054 0.038)" fill="#fff"/>
      </g>
      <path id="a" d="M1.723,6.341H0L2.466.473A.767.767,0,0,1,3.23,0H4.559L5.883,6.339H4.365L4.171,5.4h-2.1l-.345.942Zm1.69-4.617L2.545,4.1H3.9Z" transform="translate(14.513 0.151)" fill="#fff"/>
      <path id="s" d="M4.708,1.638,4.944.276A4.784,4.784,0,0,0,3.457,0C2.636,0,.687.358.687,2.1c0,1.638,2.288,1.659,2.288,2.518S.923,5.324.246,4.781L0,6.2a4.638,4.638,0,0,0,1.867.358C3,6.563,4.7,5.979,4.7,4.392c0-1.648-2.308-1.8-2.308-2.519S4,1.249,4.708,1.638" transform="translate(9.934 0.037)" fill="#fff"/>
      <path id="i" d="M1.654,6.34H0L1.033,0H2.688L1.654,6.34" transform="translate(7.261 0.151)" fill="#fff"/>
      <path id="v" d="M4.89,6.34H3.167L1.731.832a6.39,6.39,0,0,1,.724.505A4.985,4.985,0,0,1,3.978,3.422l.186.939L5.741,0h1.78L4.89,6.34Z" transform="translate(0.129 0.151)" fill="#fff"/>
      <path id="shape" d="M3.978,3.422,3.421.571A.707.707,0,0,0,2.637,0H.03L0,.107a6.413,6.413,0,0,1,2.455,1.23A4.941,4.941,0,0,1,3.978,3.422" transform="translate(0.129 0.151)" fill="#f9a533"/>
    </g>
  </g>
</svg>
