<svg xmlns="http://www.w3.org/2000/svg" xmlns:xlink="http://www.w3.org/1999/xlink" width="82.61" height="77.4" viewBox="0 0 82.61 77.4">
  <defs>
    <filter id="Conversation" x="0" y="0" width="82.61" height="77.4" filterUnits="userSpaceOnUse">
      <feOffset input="SourceAlpha"/>
      <feGaussianBlur stdDeviation="3" result="blur"/>
      <feFlood flood-opacity="0.161"/>
      <feComposite operator="in" in2="blur"/>
      <feComposite in="SourceGraphic"/>
    </filter>
  </defs>
  <g id="Group_14446" data-name="Group 14446" transform="translate(-280 -656)">
    <path id="Path_18987" data-name="Path 18987" d="M27.03,2790.763l10.421-10.57h15.1l4.983-3.84v-10l9.171,10,2.242-2.329v-7.674h6.073l2.929-6.165v-23.391l-2.929-2.529H40.439l-2.984,2.529v10.421H21.483l-4.288,2.976v23.837l1.269,4.365,3.022,1.8H25.11v8.574Z" transform="translate(274.155 -2066.366)" fill="#fff"/>
    <g transform="matrix(1, 0, 0, 1, 280, 656)" filter="url(#Conversation)">
      <path id="Conversation-2" data-name="Conversation" d="M12.238,59.4a3.5,3.5,0,0,1-1.321-.262,3.394,3.394,0,0,1-2.123-3.151V50.542H8.538A8.51,8.51,0,0,1,0,42.079V21.893a8.506,8.506,0,0,1,8.538-8.455H20.385V8.463A8.51,8.51,0,0,1,28.922,0H56.078A8.508,8.508,0,0,1,64.61,8.463V28.65a8.506,8.506,0,0,1-8.533,8.46h-.256v5.431a3.374,3.374,0,0,1-2.1,3.154,3.518,3.518,0,0,1-1.355.275A3.469,3.469,0,0,1,49.944,45l-5.715-5.686v2.767a8.509,8.509,0,0,1-8.535,8.463H22.6L14.673,58.4A3.445,3.445,0,0,1,12.238,59.4Zm-3.7-42.5a5.028,5.028,0,0,0-5.049,5V42.079a5.029,5.029,0,0,0,5.049,5h2a1.741,1.741,0,0,1,1.748,1.732V55.99l8.35-8.408a1.772,1.772,0,0,1,1.237-.505h13.82a5.028,5.028,0,0,0,5.046-5V21.893a5.027,5.027,0,0,0-5.046-5ZM28.922,3.467a5.027,5.027,0,0,0-5.046,5v4.975H35.691a8.5,8.5,0,0,1,8.535,8.455V34.407l8.165,8.128-.06-7.158a1.739,1.739,0,0,1,1.744-1.73h2a5.025,5.025,0,0,0,5.043-5V8.463a5.025,5.025,0,0,0-5.043-5Z" transform="translate(9 9)" fill="#ff7643"/>
    </g>
  </g>
</svg>
