<svg id="Twitter" xmlns="http://www.w3.org/2000/svg" width="20" height="20" viewBox="0 0 30 30">
  <path id="Combined_Shape" data-name="Combined Shape" d="M15,30A15,15,0,0,1,4.393,4.393,15,15,0,1,1,25.606,25.606,14.9,14.9,0,0,1,15,30ZM7.98,13.264c-.016,0-.025,0-.029.008a3.776,3.776,0,0,0,.377,1.419,3.376,3.376,0,0,0,1.437,1.356l.515.244-.608.01c-.377,0-.513.005-.556.061-.027.035-.014.091.009.172a3.17,3.17,0,0,0,1.962,1.738l.651.222-.566.338a5.937,5.937,0,0,1-2.813.784,3.227,3.227,0,0,0-.86.085,7.937,7.937,0,0,0,2.025.932,8.485,8.485,0,0,0,2.5.366,8.737,8.737,0,0,0,4.383-1.15A9.162,9.162,0,0,0,19.9,15.741a11,11,0,0,0,.714-3.178c0-.49.035-.554.619-1.134a6.9,6.9,0,0,0,.734-.815c.038-.074.061-.12.049-.141s-.016-.012-.034-.012a2.35,2.35,0,0,0-.456.133,2.948,2.948,0,0,1-.736.2c-.047,0-.074-.011-.084-.033-.023-.052.052-.167.243-.373a3.1,3.1,0,0,0,.714-1.133c0-.006-.006-.01-.018-.01a1.044,1.044,0,0,0-.318.126,5.913,5.913,0,0,1-.923.36l-.567.18-.514-.349a4.246,4.246,0,0,0-.892-.466,3.261,3.261,0,0,0-.838-.1,3.192,3.192,0,0,0-1,.141,3.027,3.027,0,0,0-2.046,3.051l.031.519-.524-.064A8.561,8.561,0,0,1,9.063,10.19L8.371,9.5l-.178.509a3.064,3.064,0,0,0,.651,3.136c.19.2.268.318.246.369-.009.021-.034.031-.078.031a2.122,2.122,0,0,1-.567-.157A2.169,2.169,0,0,0,7.98,13.264Z"/>
</svg>
