<svg xmlns="http://www.w3.org/2000/svg" width="30" height="28.5" viewBox="0 0 30 28.5">
  <path id="User_Icon" data-name="User Icon" d="M26.2,28.5H3.8A3.917,3.917,0,0,1,.786,27.135,3.161,3.161,0,0,1,.1,24.254,14,14,0,0,1,4,17.73a15.594,15.594,0,0,1,6.773-3.759A7.406,7.406,0,0,1,6.884,7.54C6.884,3.382,10.525,0,15,0s8.115,3.382,8.115,7.54a7.4,7.4,0,0,1-3.883,6.431,15.6,15.6,0,0,1,6.773,3.759,14,14,0,0,1,3.89,6.524,3.161,3.161,0,0,1-.681,2.881A3.913,3.913,0,0,1,26.2,28.5ZM15,15.079c-6.257,0-11.671,3.936-13.166,9.571a1.592,1.592,0,0,0,.353,1.464,2.122,2.122,0,0,0,1.613.732H26.2a2.128,2.128,0,0,0,1.614-.732,1.6,1.6,0,0,0,.353-1.464C26.67,19.015,21.256,15.079,15,15.079ZM15,1.656A6.129,6.129,0,0,0,8.667,7.54,6.128,6.128,0,0,0,15,13.423,6.127,6.127,0,0,0,21.334,7.54,6.128,6.128,0,0,0,15,1.656Z" fill="#a8123e"/>
</svg>
